<svg width="712" height="712" viewBox="0 0 712 712" fill="none" xmlns="http://www.w3.org/2000/svg">
<circle cx="355.96" cy="355.96" r="355.96" fill="url(#paint0_linear)"/>
<mask id="mask0" mask-type="alpha" maskUnits="userSpaceOnUse" x="100" y="146" width="274" height="417">
<mask id="path-2-inside-1" mask-type="luminance" fill="white">
<path fill-rule="evenodd" clip-rule="evenodd" d="M237 477.609C265.719 477.609 289 454.327 289 425.609C289 396.89 265.719 373.609 237 373.609C208.281 373.609 185 396.89 185 425.609C185 454.327 208.281 477.609 237 477.609ZM237 457.609C254.673 457.609 269 443.282 269 425.609C269 407.936 254.673 393.609 237 393.609C219.327 393.609 205 407.936 205 425.609C205 443.282 219.327 457.609 237 457.609Z"/>
</mask>
<path fill-rule="evenodd" clip-rule="evenodd" d="M237 477.609C265.719 477.609 289 454.327 289 425.609C289 396.89 265.719 373.609 237 373.609C208.281 373.609 185 396.89 185 425.609C185 454.327 208.281 477.609 237 477.609ZM237 457.609C254.673 457.609 269 443.282 269 425.609C269 407.936 254.673 393.609 237 393.609C219.327 393.609 205 407.936 205 425.609C205 443.282 219.327 457.609 237 457.609Z" fill="#121111"/>
<path d="M288 425.609C288 453.775 265.167 476.609 237 476.609V478.609C266.271 478.609 290 454.88 290 425.609H288ZM237 374.609C265.167 374.609 288 397.442 288 425.609H290C290 396.338 266.271 372.609 237 372.609V374.609ZM186 425.609C186 397.442 208.833 374.609 237 374.609V372.609C207.729 372.609 184 396.338 184 425.609H186ZM237 476.609C208.833 476.609 186 453.775 186 425.609H184C184 454.88 207.729 478.609 237 478.609V476.609ZM268 425.609C268 442.729 254.121 456.609 237 456.609V458.609C255.225 458.609 270 443.834 270 425.609H268ZM237 394.609C254.121 394.609 268 408.488 268 425.609H270C270 407.383 255.225 392.609 237 392.609V394.609ZM206 425.609C206 408.488 219.879 394.609 237 394.609V392.609C218.775 392.609 204 407.383 204 425.609H206ZM237 456.609C219.879 456.609 206 442.729 206 425.609H204C204 443.834 218.775 458.609 237 458.609V456.609Z" fill="black" mask="url(#path-2-inside-1)"/>
<path fill-rule="evenodd" clip-rule="evenodd" d="M321 164.639C335.741 153.019 354.04 146.609 373 146.609V230.609V273.609V348.609V357.609V424.867C373.001 425.115 373.002 425.362 373.002 425.61C373.002 425.857 373.001 426.105 373 426.352V432.609C372.942 432.609 372.883 432.609 372.825 432.608C369.182 504.467 309.765 561.611 237.001 561.611C161.89 561.611 101 500.721 101 425.61C101 350.498 161.89 289.609 237.001 289.609C268.704 289.609 297.873 300.456 321 318.642V296.579V291.639V164.639ZM321 425.609C321 472.001 283.392 509.609 237 509.609C190.608 509.609 153 472.001 153 425.609C153 379.217 190.608 341.609 237 341.609C283.392 341.609 321 379.217 321 425.609Z" fill="#121111"/>
<path d="M373 146.609H373.5V146.109H373V146.609ZM321 164.639L320.69 164.246L320.5 164.396V164.639H321ZM373 424.867H372.5L372.5 424.87L373 424.867ZM373 426.352L372.5 426.349V426.352H373ZM373 432.609V433.109H373.5V432.609H373ZM372.825 432.608L372.826 432.108L372.35 432.107L372.326 432.583L372.825 432.608ZM321 318.642L320.691 319.035L321.5 319.672V318.642H321ZM373 146.109C353.927 146.109 335.519 152.557 320.69 164.246L321.31 165.031C335.963 153.48 354.153 147.109 373 147.109V146.109ZM373.5 230.609V146.609H372.5V230.609H373.5ZM373.5 273.609V230.609H372.5V273.609H373.5ZM373.5 348.609V273.609H372.5V348.609H373.5ZM373.5 357.609V348.609H372.5V357.609H373.5ZM373.5 424.867V357.609H372.5V424.867H373.5ZM373.502 425.61C373.502 425.361 373.501 425.113 373.5 424.865L372.5 424.87C372.501 425.116 372.502 425.363 372.502 425.61H373.502ZM373.5 426.355C373.501 426.106 373.502 425.858 373.502 425.61H372.502C372.502 425.856 372.501 426.103 372.5 426.349L373.5 426.355ZM373.5 432.609V426.352H372.5V432.609H373.5ZM372.824 433.108C372.883 433.109 372.941 433.109 373 433.109V432.109C372.942 432.109 372.884 432.109 372.826 432.108L372.824 433.108ZM237.001 562.111C310.033 562.111 369.668 504.757 373.324 432.634L372.326 432.583C368.696 504.177 309.497 561.111 237.001 561.111V562.111ZM100.5 425.61C100.5 500.997 161.614 562.111 237.001 562.111V561.111C162.166 561.111 101.5 500.445 101.5 425.61H100.5ZM237.001 289.109C161.614 289.109 100.5 350.222 100.5 425.61H101.5C101.5 350.774 162.166 290.109 237.001 290.109V289.109ZM321.309 318.249C298.097 299.996 268.82 289.109 237.001 289.109V290.109C268.588 290.109 297.649 300.916 320.691 319.035L321.309 318.249ZM320.5 296.579V318.642H321.5V296.579H320.5ZM320.5 291.639V296.579H321.5V291.639H320.5ZM320.5 164.639V291.639H321.5V164.639H320.5ZM237 510.109C283.668 510.109 321.5 472.277 321.5 425.609H320.5C320.5 471.724 283.116 509.109 237 509.109V510.109ZM152.5 425.609C152.5 472.277 190.332 510.109 237 510.109V509.109C190.884 509.109 153.5 471.724 153.5 425.609H152.5ZM237 341.109C190.332 341.109 152.5 378.941 152.5 425.609H153.5C153.5 379.493 190.884 342.109 237 342.109V341.109ZM321.5 425.609C321.5 378.941 283.668 341.109 237 341.109V342.109C283.116 342.109 320.5 379.493 320.5 425.609H321.5Z" fill="black"/>
</mask>
<g mask="url(#mask0)">
<ellipse cx="254" cy="346.609" rx="216" ry="252" fill="url(#paint1_linear)"/>
</g>
<path fill-rule="evenodd" clip-rule="evenodd" d="M499.099 513.658L346.239 378.992C339.959 373.46 345.333 362.996 354.115 363.655L413.769 368.134C415.717 368.28 417.519 369.021 418.912 370.248L585.771 517.246C584.55 517.376 583.245 517.557 581.854 517.79C550.407 523.064 523.231 519.689 499.099 513.658ZM295.402 334.206C295.543 334.331 295.768 334.327 295.924 334.199C296.289 333.897 295.927 333.38 295.507 333.603C295.266 333.732 295.212 334.039 295.402 334.206Z" fill="url(#paint2_linear)"/>
<path fill-rule="evenodd" clip-rule="evenodd" d="M501.537 195.333L344.698 373.423C339.244 379.616 344.304 389.213 352.51 388.241L412.561 381.121C414.781 380.858 416.826 379.785 418.301 378.11L579.874 194.645C580.893 193.488 581.556 192.157 581.882 190.774C580.624 190.638 579.274 190.436 577.829 190.166C548.937 184.75 523.872 188.422 501.537 195.333ZM299.892 424.299C300.046 424.125 300.316 424.114 300.482 424.276C300.829 424.614 300.393 425.165 299.981 424.909C299.769 424.777 299.727 424.487 299.892 424.299Z" fill="url(#paint3_linear)"/>
<defs>
<linearGradient id="paint0_linear" x1="0" y1="355.96" x2="711.92" y2="355.96" gradientUnits="userSpaceOnUse">
<stop stop-color="#E6DADA"/>
<stop offset="1" stop-color="#274046"/>
</linearGradient>
<linearGradient id="paint1_linear" x1="38" y1="346.609" x2="470" y2="346.609" gradientUnits="userSpaceOnUse">
<stop/>
<stop offset="0.536458" stop-color="#434343" stop-opacity="0.67276"/>
<stop offset="1" stop-color="white" stop-opacity="0.39"/>
</linearGradient>
<linearGradient id="paint2_linear" x1="565.4" y1="532.122" x2="440.37" y2="334.593" gradientUnits="userSpaceOnUse">
<stop stop-color="#FFFCFC"/>
<stop offset="0.484375" stop-color="#FFFCFC" stop-opacity="0.8"/>
<stop offset="1" stop-color="#FFFCFC" stop-opacity="0"/>
</linearGradient>
<linearGradient id="paint3_linear" x1="564.019" y1="172.81" x2="402.35" y2="388.674" gradientUnits="userSpaceOnUse">
<stop stop-color="#FFFCFC"/>
<stop offset="0.484375" stop-color="#FFFCFC" stop-opacity="0.8"/>
<stop offset="1" stop-color="#FFFCFC" stop-opacity="0"/>
</linearGradient>
</defs>
</svg>
